# xmcd
#
# Track frame offsets: 
#        150
#        14879
#        27947
#        41007
#        53022
#        65261
#        78022
#        89883
#        103516
#        115684
#        129504
#        141971
#        155960
#        168889
#        182325
#        194942
#        208049
#        219992
#
# Disc length: 3090 seconds
#
# Revision: 1
# Processed by: cddbd v1.5.1PL0 Copyright (c) Steve Scherf et al.
# Submitted via: ExactAudioCopy v0.95a5
#
DISCID=030c1012
DTITLE=T-Bone Walker - Midnite Collection
DYEAR=2000
DGENRE=Blues
TTITLE0=i got a break,baby
TTITLE1=mean old world
TTITLE2=i´m gomma find my baby
TTITLE3=bobby sox blues
TTITLE4=t-bone jumps again
TTITLE5=long skirt baby blues
TTITLE6=that´s better for me
TTITLE7=i´m waiting for tour call
TTITLE8=midnight blues
TTITLE9=plain old down home blues
TTITLE10=west side baby
TTITLE11=description blues
TTITLE12=that old feeling is gone
TTITLE13=t-bone shyffle
TTITLE14=hypin´woman blues
TTITLE15=you´re my best poker hand
TTITLE16=lonesome women blues
TTITLE17=she´s my old time used to be
EXTD=YEAR: 2000
EXTT0=
EXTT1=
EXTT2=
EXTT3=
EXTT4=
EXTT5=
EXTT6=
EXTT7=
EXTT8=
EXTT9=
EXTT10=
EXTT11=
EXTT12=
EXTT13=
EXTT14=
EXTT15=
EXTT16=
EXTT17=
PLAYORDER=
